<svg width="822" height="822" viewBox="0 0 822 822" fill="none" xmlns="http://www.w3.org/2000/svg">
<rect width="822" height="822" rx="50" fill="white"/>
<path d="M155.752 452.895C159.117 452.895 162.549 452.821 165.902 452.896C177.661 453.16 200.289 451.024 199.133 468.788C198.251 480.489 195.328 492.272 193.24 503.836C192.023 510.577 188.317 516.456 182.493 519.997C171.971 525.126 154.496 523.89 142.847 523.887L98 523.851C101.553 505.781 104.632 487.503 108.02 469.392C109.03 463.989 110.025 458.359 110.688 452.92L155.752 452.895ZM178.073 477.225C179.829 467.359 162.758 469.647 156.24 469.657L128.254 469.716C126.308 480.568 123.855 497.231 121.366 507.412L148.565 507.49C154.22 507.501 165.225 508.203 169.925 505.647C175.023 501.264 174.776 494.775 175.972 488.569C176.687 484.853 177.423 480.885 178.073 477.225Z" fill="black"/>
<path d="M653.31 453.057C671.792 452.954 690.404 452.266 708.858 453.364C728.531 454.534 723.572 470.367 721.15 483.874C719.739 491.715 718.438 499.571 716.289 507.221C713.205 518.19 706.715 522.558 695.642 523.514C690.043 524.3 676.757 523.871 670.31 523.911C659.632 523.756 649.193 524.319 638.514 523.497C625.829 522.52 622.582 515.849 624.517 503.966C626.442 492.166 628.459 480.341 631.368 468.794C634.293 457.191 641.834 454.104 652.873 453.127C653.02 453.103 653.163 453.08 653.31 453.057ZM700.558 470.734C696.261 468.31 666.182 469.492 659.434 469.545C649.434 470.544 649.718 475.574 648.143 484.336C643.939 507.819 640.495 507.591 664.887 507.557L689.486 507.501C692.039 506.982 694.735 506.455 696.239 504.076C698.65 500.269 703.128 477.146 701.953 472.959C701.718 472.122 701.357 471.182 700.558 470.734Z" fill="black"/>
<path d="M218.854 452.93L264.755 452.903C273.721 452.9 282.94 452.505 291.751 453.441C308.443 455.215 307.662 463.946 305.233 477.167C302.38 492.693 300.372 499.189 283.748 501.603C288.668 508.437 296.402 517.274 301.867 523.82L276.215 523.852C271.442 516.919 265.219 509.039 260.085 502.225L242.168 502.216L230.618 502.252C229.13 509.126 228.214 516.729 226.71 523.844L206.396 523.826C208.464 511.358 210.977 498.654 213.165 486.157L256.661 486.175C262.141 486.177 268.092 486.153 273.454 486.16C282.352 486.171 284.58 485.051 285.438 475.884C285.895 470.989 283.962 469.943 279.399 469.784C272.168 469.533 264.879 469.669 257.654 469.674L216.051 469.674C217.03 464.223 218.185 458.396 218.854 452.93Z" fill="black"/>
<path d="M368.376 452.942L393.612 452.914C402.136 476.285 412.852 500.288 421.605 523.873L398.644 523.869C394.306 512.198 389.904 500.55 385.438 488.927C383.202 483.155 380.55 475.881 377.975 470.366L374.504 474.94C362.527 491.152 350.682 507.461 338.97 523.865L315.947 523.889L368.376 452.942Z" fill="url(#paint0_linear_24_313)"/>
<path d="M524.595 452.931L547.721 452.943L566.514 505.529C570.178 501.137 576.066 492.287 579.538 487.408C587.713 475.834 595.997 464.34 604.39 452.925L627.431 452.963L619.847 463.238L575.153 523.806C567.192 523.933 558.985 523.84 551.002 523.848L524.595 452.931Z" fill="black"/>
<path d="M414.293 452.945L439.298 452.926C445.988 462.93 452.465 473.07 459.284 482.986L489.126 452.946C497.624 452.846 506.282 452.939 514.793 452.947L491.606 475.632C483.331 483.729 475 491.769 466.615 499.752C464.946 506.769 463.417 516.592 462.06 523.812L441.599 523.837L446.019 499.934C436.272 484.717 424.572 467.924 414.293 452.945Z" fill="black"/>
<path fill-rule="evenodd" clip-rule="evenodd" d="M256.155 213.377C256.147 213.296 415.437 212.945 457.466 213.259C466.345 214.567 542.306 229.077 542.105 310.076C521.822 300.111 503.699 287.221 484.242 275.809C477.059 271.759 471.837 268.984 462.542 264.93C456.321 262.584 450.629 262.509 444.936 262.05C397.647 261.913 350.686 261.913 303.726 261.913C289.026 248.37 256.155 214.565 256.155 213.377Z" fill="black"/>
<path fill-rule="evenodd" clip-rule="evenodd" d="M476.663 298.603C476.535 298.503 476.393 298.423 476.242 298.366C476.351 298.147 475.97 297.435 476.776 297.832C490.853 305.539 507.368 314.806 521.298 323.066C504.516 331.5 487.905 339.678 471.087 348.135C471.087 348.135 470.989 347.625 470.976 347.612C477.394 340.565 480.698 334.677 487.079 327.265C486.969 327.046 487.353 326.335 486.424 326.564C460.59 326.543 435.412 328.893 409.25 334.808C389.984 339.289 370.717 345.067 351.212 352.91C343.742 355.85 338.122 358.435 332.064 361.194C312.672 370.297 298.154 379.049 282.611 390.101C267.847 400.893 254.084 412.533 240.39 425.421C259.261 376.575 277.393 327.56 296.281 278.334C314.562 278.334 332.514 278.005 350.987 278.334C342.318 301.979 336.1 316.861 326.928 340.505L327.371 340.834L327.699 340.892C380.133 320.21 431.415 309.558 486.796 316.385C486.794 316.285 476.448 298.703 476.663 298.603Z" fill="url(#paint1_linear_24_313)"/>
<path fill-rule="evenodd" clip-rule="evenodd" d="M458.673 341.646C439.275 343.814 419.823 346.728 400.123 353.089L399.786 353.201L400.069 353.855C402.864 354.663 405.609 356.185 408.415 356.846C423.218 350.793 442.021 345.635 458.755 342.355C458.842 342.284 458.673 341.646 458.673 341.646Z" fill="black"/>
<path fill-rule="evenodd" clip-rule="evenodd" d="M387.191 358.247C372.675 363.562 362.26 368.046 350.588 374.12C355.52 375.733 360.906 377.319 366.478 379.205C376.142 372.673 386.358 366.996 397.009 362.239C396.672 361.505 397.715 362.34 397.397 361.327C394.044 360.593 390.766 358.703 387.191 358.247Z" fill="black"/>
<path fill-rule="evenodd" clip-rule="evenodd" d="M354.736 386.896C348.715 385.564 342.695 384.083 336.325 382.743C319.757 394.636 305.214 408.554 292.697 424.498L293.017 425.148C304.076 425.041 315.461 425.26 326.402 425.036C334.013 410.535 343.607 398.344 354.858 387.812C354.736 387.689 354.736 387.033 354.736 386.896Z" fill="black"/>
<path fill-rule="evenodd" clip-rule="evenodd" d="M540.541 308.287C540.727 299.022 539.218 290.156 536.793 281.289C533.224 269.513 529.055 261.857 525.658 256.457C521.078 249.306 515.574 242.79 509.289 237.078C501.762 230.471 494.347 225.735 484.128 221.232C477.094 218.004 462.98 215.142 456.125 213.632C456.113 213.421 456.114 213.21 456.13 213C476.262 213.149 503.41 215.377 523.896 223.108C532.955 226.899 537.511 229.351 543.296 233.282C553.308 240.129 561.492 248.804 568.094 259.311C570.977 264.386 572.916 267.6 576.318 276.363C581.025 290.156 582.598 303.948 580.848 318.169C579.672 329.666 575.834 342.907 570.74 353.733C563.932 368.287 555.084 380.552 543.805 390.886C535.493 398.448 526.464 405.29 515.688 410.975C510.602 413.634 505.319 415.9 499.887 417.754C478.871 425.924 457.852 425.497 436.507 425.12C415.489 425.153 394.472 425.087 373.454 425.153L373.161 424.853C377.821 414.11 381.238 408.026 387.452 399.737C393.673 391.949 401.976 383.372 409.554 377.157C430.486 376.018 451.066 379.04 471.646 374.547C525.482 366.854 538.817 323.844 540.541 308.287Z" fill="url(#paint2_linear_24_313)"/>
<defs>
<linearGradient id="paint0_linear_24_313" x1="368.789" y1="522.991" x2="368.38" y2="453.776" gradientUnits="userSpaceOnUse">
<stop stop-color="#F24200"/>
<stop offset="1" stop-color="#FF7E23"/>
</linearGradient>
<linearGradient id="paint1_linear_24_313" x1="375.951" y1="296.56" x2="275.293" y2="431.72" gradientUnits="userSpaceOnUse">
<stop stop-color="#FF6600"/>
<stop offset="1" stop-color="#F04703"/>
</linearGradient>
<linearGradient id="paint2_linear_24_313" x1="477.352" y1="213" x2="477.352" y2="425.284" gradientUnits="userSpaceOnUse">
<stop stop-color="#FF6600"/>
<stop offset="1" stop-color="#EF4503"/>
</linearGradient>
</defs>
</svg>
